<?xml version="1.0" standalone="no"?>
<!DOCTYPE svg PUBLIC "-//W3C//DTD SVG 20010904//EN"
 "http://www.w3.org/TR/2001/REC-SVG-20010904/DTD/svg10.dtd">
<svg version="1.0" xmlns="http://www.w3.org/2000/svg"
 width="1280.000000pt" height="1280.000000pt" viewBox="0 0 1280.000000 1280.000000"
 preserveAspectRatio="xMidYMid meet">
<metadata>
Created by potrace 1.16, written by Peter Selinger 2001-2019
</metadata>
<g transform="translate(0.000000,1280.000000) scale(0.100000,-0.100000)"
fill="#000000" stroke="none">
<path d="M3578 7981 c-118 -39 -228 -126 -300 -235 -103 -159 -107 -375 -11
-546 33 -58 2556 -2586 2632 -2637 87 -58 170 -83 282 -83 118 0 199 23 285
79 38 25 505 485 1340 1322 1263 1265 1282 1285 1318 1360 97 206 56 438 -108
602 -107 106 -228 157 -376 157 -50 0 -109 -7 -141 -16 -141 -42 -98 -2 -1244
-1146 l-1070 -1068 -1055 1055 c-580 581 -1077 1071 -1105 1089 -97 64 -149
79 -275 83 -92 2 -126 -1 -172 -16z"/>
</g>
</svg>
